<svg xmlns="http://www.w3.org/2000/svg" width="256" height="256" viewBox="0 0 256 256">
  <defs>
    <linearGradient id="g" x1="0" x2="1" y1="0" y2="1">
      <stop offset="0%" stop-color="#7C3AED"/>
      <stop offset="100%" stop-color="#6366F1"/>
    </linearGradient>
    <filter id="s" x="-20%" y="-20%" width="140%" height="140%">
      <feDropShadow dx="0" dy="8" stdDeviation="12" flood-color="#6366F1" flood-opacity="0.35"/>
    </filter>
  </defs>
  <rect x="16" y="16" width="224" height="224" rx="64" fill="url(#g)"/>
  <g filter="url(#s)">
    <path fill="#fff" d="M76 86c-12 0-22 9-22 20v44c0 11 10 20 22 20h58l26 18c6 4 12 0 10-7l-5-11c13-2 23-11 23-20v-44c0-11-10-20-22-20H76zm8 28h88a6 6 0 0 1 0 12H84a6 6 0 1 1 0-12zm0 28h56a6 6 0 1 1 0 12H84a6 6 0 1 1 0-12z"/>
  </g>
</svg>


